<svg width="20" height="20" viewBox="0 0 20 20" fill="none" xmlns="http://www.w3.org/2000/svg">
<path d="M4 18H10.3502C14.249 18 16 16.0408 16 13.4286C16 11.0962 14.716 9.97668 12.6848 9.62682V9.55685C14.5759 8.95044 15.3463 7.76093 15.3463 6.03499C15.3463 3.44606 13.642 2 10 2H4V18ZM7.29183 15.6443V10.8163H9.6498C11.5409 10.8163 12.5914 11.516 12.5914 13.172C12.5914 14.8513 11.5875 15.6443 9.76654 15.6443H7.29183ZM7.29183 8.76385V4.33236H9.43969C11.1673 4.33236 12.0545 4.89213 12.0545 6.52478C12.0545 8.20408 10.9105 8.76385 9.3463 8.76385H7.29183Z" fill="#9E9E9E"/>
</svg>
