<svg width="20" height="20" viewBox="0 0 20 20" fill="none" xmlns="http://www.w3.org/2000/svg">
<g clip-path="url(#clip0_8128_44237)">
<path fill-rule="evenodd" clip-rule="evenodd" d="M-5 10C-5 1.717 1.717 -5 10 -5C1.71573 -5 -5 1.71573 -5 10ZM10 -5C18.283 -5 25 1.717 25 10C25 1.71573 18.2843 -5 10 -5ZM10 25C1.71573 25 -5 18.2843 -5 10C-5 18.283 1.717 25 10 25ZM25 10C25 18.2843 18.2843 25 10 25C18.283 25 25 18.283 25 10ZM19.3727 10.0153C19.3727 10.0153 19.3727 13.0574 18.9868 14.5243C18.7705 15.3272 18.1374 15.9603 17.3345 16.1764C15.8676 16.5625 10 16.5625 10 16.5625C10 16.5625 4.14772 16.5625 2.66548 16.161C1.86256 15.945 1.22948 15.3117 1.01318 14.5087C0.62706 13.0574 0.62706 10 0.62706 10C0.62706 10 0.62706 6.95816 1.01318 5.49126C1.22925 4.68834 1.8779 4.03969 2.66548 3.82362C4.13239 3.4375 10 3.4375 10 3.4375C10 3.4375 15.8676 3.4375 17.3345 3.83896C18.1374 4.05502 18.7705 4.68834 18.9868 5.49126C19.3883 6.95816 19.3727 10.0153 19.3727 10.0153ZM8.13232 12.8079L13.0116 9.99771L8.13232 7.1875V12.8079Z" fill="#9E9E9E"/>
</g>
<defs>
<clipPath id="clip0_8128_44237">
<rect width="20" height="20" fill="white"/>
</clipPath>
</defs>
</svg>
