<svg width="20" height="20" viewBox="0 0 20 20" fill="none" xmlns="http://www.w3.org/2000/svg">
<path fill-rule="evenodd" clip-rule="evenodd" d="M6.19231 1H13.8077C16.6462 1 19 3.35385 18.9308 6.19231V13.8077C18.9308 16.6462 16.6462 19 13.7385 19H6.19231C3.35385 19 1 16.6462 1 13.7385V6.19231C1 3.35385 3.35385 1 6.19231 1ZM5.15385 10C5.15385 12.7 7.3 14.8462 10 14.8462C12.7 14.8462 14.8462 12.7 14.8462 10C14.8462 7.3 12.7 5.15385 10 5.15385C7.3 5.15385 5.15385 7.3 5.15385 10ZM14.1538 4.80769C14.1538 5.36154 14.6385 5.84615 15.1923 5.84615C15.7462 5.84615 16.2308 5.36154 16.2308 4.80769C16.2308 4.25385 15.7462 3.76923 15.1923 3.76923C14.6385 3.76923 14.1538 4.25385 14.1538 4.80769ZM13.4615 9.99997C13.4615 11.9117 11.9117 13.4615 9.99997 13.4615C8.08821 13.4615 6.53843 11.9117 6.53843 9.99997C6.53843 8.08821 8.08821 6.53843 9.99997 6.53843C11.9117 6.53843 13.4615 8.08821 13.4615 9.99997Z" fill="#9E9E9E"/>
</svg>
