<svg width="20" height="20" viewBox="0 0 20 20" fill="none" xmlns="http://www.w3.org/2000/svg">
<g clip-path="url(#clip0_8128_44239)">
<path fill-rule="evenodd" clip-rule="evenodd" d="M15.8333 20H4.16667C1.86583 20 0 18.1342 0 15.8333V4.16667C0 1.86583 1.86583 0 4.16667 0H15.8333C18.135 0 20 1.86583 20 4.16667V15.8333C20 18.1342 18.1358 19.9992 15.8333 20ZM16.6417 15.2925V15.0683L15.6025 14.0483C15.5108 13.9783 15.465 13.8633 15.4842 13.7492V6.25083C15.465 6.13667 15.5108 6.02167 15.6025 5.95167L16.6667 4.93167V4.7075H12.9817L10.355 11.26L7.36667 4.7075H3.50167V4.93167L4.74667 6.43083C4.86833 6.54167 4.93083 6.70333 4.91417 6.86667V12.76C4.95083 12.9725 4.88333 13.19 4.73417 13.345L3.33333 15.0433V15.2675H7.305V15.0433L5.90417 13.345C5.75333 13.19 5.6825 12.9742 5.71083 12.76V7.66333L9.19667 15.2675H9.60167L12.5958 7.66333V13.7242C12.5958 13.8858 12.5958 13.9175 12.49 14.0233L11.4133 15.0683V15.2925H16.6417Z" fill="#9E9E9E"/>
</g>
<defs>
<clipPath id="clip0_8128_44239">
<rect width="20" height="20" fill="white"/>
</clipPath>
</defs>
</svg>
